<?xml version="1.0" encoding="iso-8859-1"?>
<!-- Uploaded to: SVG Repo, www.svgrepo.com, Generator: SVG Repo Mixer Tools -->
<svg height="800px" width="800px" version="1.1" id="Layer_1" xmlns="http://www.w3.org/2000/svg" xmlns:xlink="http://www.w3.org/1999/xlink" 
	 viewBox="0 0 512 512" xml:space="preserve">
<g>
	<path style="fill:#B5E6F8;" d="M121.601,371.961v131.736c0,4.585,3.717,8.303,8.303,8.303c4.585,0,8.303-3.717,8.303-8.303V371.961
		H121.601z"/>
	<path style="fill:#B5E6F8;" d="M373.451,371.961l-0.001,131.736c0,4.585,3.716,8.303,8.303,8.303c4.585,0,8.303-3.717,8.303-8.303
		l0.001-131.736H373.451z"/>
	<path style="fill:#B5E6F8;" d="M247.696,334.322v169.375c0,4.585,3.717,8.303,8.303,8.303c4.586,0,8.303-3.717,8.303-8.303V334.322
		H247.696z"/>
</g>
<path style="fill:#E7C05C;" d="M381.926,55.551l0.022,280.975c1.937-0.786,125.902-51.787,125.902-155.05
	C507.85,111.932,451.469,55.551,381.926,55.551z"/>
<path style="fill:#FFD875;" d="M381.926,55.551c51.2,0,92.714,56.381,92.714,125.924c0,103.264-91.274,154.264-92.691,155.05
	c-0.022,0.011-125.946-44.215-125.946-155.05C256.002,111.932,312.371,55.551,381.926,55.551z"/>
<polygon style="fill:#E7C05C;" points="381.923,336.536 358.122,383.031 405.724,383.031 "/>
<path style="fill:#0DCD9B;" d="M130.074,55.548l0.022,280.975c1.937-0.786,125.902-51.787,125.902-155.05
	C255.998,111.929,199.617,55.548,130.074,55.548z"/>
<path style="fill:#12F8BC;" d="M130.074,55.548c51.2,0,92.714,56.381,92.714,125.924c0,103.263-91.274,154.264-92.691,155.05
	C130.074,336.534,4.15,292.308,4.15,181.473C4.15,111.929,60.52,55.548,130.074,55.548z"/>
<polygon style="fill:#0DCD9B;" points="130.071,336.534 106.269,383.029 153.871,383.029 "/>
<g>
	<polygon style="fill:#D23ACB;" points="255.998,298.897 232.196,345.391 279.798,345.392 	"/>
	<path style="fill:#D23ACB;" d="M256.002,0l0.022,298.886c2.059-0.841,133.928-55.097,133.928-164.936
		C389.952,59.968,329.973,0,256.002,0z"/>
</g>
<path style="fill:#F95FF2;" d="M256.002,0c55.628,0,100.739,59.968,100.739,133.95c0,109.839-99.167,164.095-100.717,164.936
	c-0.022,0.011-133.972-47.027-133.972-164.936C122.051,59.968,182.019,0,256.002,0z"/>
<circle style="fill:#E7C05C;" cx="20.67" cy="387.459" r="16.605"/>
<circle style="fill:#12F8BC;" cx="192.953" cy="437.276" r="16.605"/>
<circle style="fill:#F95FF2;" cx="66.852" cy="487.092" r="16.605"/>
<circle style="fill:#0DCD9B;" cx="445.145" cy="487.092" r="16.605"/>
<circle style="fill:#FFD875;" cx="318.877" cy="437.276" r="16.605"/>
<circle style="fill:#D23ACB;" cx="491.33" cy="387.459" r="16.605"/>
</svg>