<?xml version="1.0" encoding="iso-8859-1"?>
<!-- Uploaded to: SVG Repo, www.svgrepo.com, Generator: SVG Repo Mixer Tools -->
<svg version="1.1" id="Layer_1" xmlns="http://www.w3.org/2000/svg" xmlns:xlink="http://www.w3.org/1999/xlink" 
	 viewBox="0 0 512.001 512.001" xml:space="preserve">
<g>
	<g>
		<path style="fill:#ABB8B9;" d="M63.563,441.442L207.49,192.153h-15.62c-11.732,0-21.331-9.597-21.331-21.333L26.612,420.109
			c-5.865,10.161-2.35,23.269,7.813,29.136C44.586,455.114,57.696,451.602,63.563,441.442z"/>
		<path style="fill:#ABB8B9;" d="M228.823,192.153h42.667v287.848c0,11.734-9.599,21.331-21.332,21.331h-0.002
			c-11.734,0-21.333-9.597-21.333-21.331V192.153z"/>
		<path style="fill:#ABB8B9;" d="M436.75,441.442L292.824,192.153h15.623c11.731,0,21.33-9.597,21.33-21.333l143.925,249.289
			c5.867,10.161,2.35,23.269-7.81,29.136C455.729,455.114,442.619,451.602,436.75,441.442z"/>
	</g>
	<g>
		<path style="fill:#657694;" d="M207.49,192.153v-42.666h-15.62c-11.732,0-21.331,9.601-21.331,21.333
			c0,11.736,9.599,21.333,21.331,21.333H207.49z"/>
		<polygon style="fill:#657694;" points="207.49,149.487 207.49,192.153 228.823,192.153 271.49,192.153 292.822,192.153 
			292.822,149.487 292.822,106.819 271.49,106.819 228.823,106.819 207.49,106.819 		"/>
		<path style="fill:#657694;" d="M292.822,149.487l0.002,42.666h15.623c11.731,0,21.33-9.597,21.33-21.333
			c0-11.732-9.599-21.333-21.33-21.333H292.822z"/>
		<rect x="228.82" y="64.155" style="fill:#657694;" width="42.667" height="42.666"/>
	</g>
	<polygon style="fill:#ABB8B9;" points="228.823,64.153 271.49,64.153 314.157,64.153 314.157,37.409 314.157,10.668 
		186.158,10.668 186.158,64.153 	"/>
	<path style="fill:#657694;" d="M356.06,61.605c-5.866,10.161-2.352,23.272,7.811,29.142l92.372,53.329
		c10.162,5.867,23.277,2.356,29.144-7.809c5.866-10.161,2.35-23.272-7.812-29.139l-92.369-53.329
		C375.043,47.929,361.928,51.442,356.06,61.605z"/>
</g>
<g>
	<path style="fill:#000003;" d="M260.85,160.155h0.625c5.891,0,10.668-4.777,10.668-10.668c0-5.892-4.777-10.668-10.668-10.668
		h-0.625c-5.892,0-10.668,4.776-10.668,10.668C250.182,155.378,254.958,160.155,260.85,160.155z"/>
	<path style="fill:#000003;" d="M482.91,97.89L390.54,44.561c-4.841-2.796-10.355-4.274-15.945-4.274
		c-7.737,0-15.103,2.81-20.826,7.673l-28.944-16.71V10.668C324.825,4.777,320.049,0,314.158,0h-128
		c-5.892,0-10.668,4.777-10.668,10.668v53.486c0,5.892,4.776,10.668,10.668,10.668h31.995v21.331h-10.665
		c-5.892,0-10.668,4.776-10.668,10.668v32h-4.951c-16.589,0-30.267,12.69-31.845,28.874L17.374,414.775
		c-8.82,15.278-3.563,34.886,11.715,43.707c4.911,2.836,10.369,4.285,15.908,4.285c2.787,0,5.596-0.367,8.367-1.108
		c8.271-2.215,15.174-7.499,19.437-14.882l140.847-243.955h4.507v277.185c0,17.642,14.355,31.994,32.003,31.994
		c17.644,0,31.999-14.352,31.999-31.994V202.822h4.508l140.849,243.956c5.922,10.251,16.696,15.987,27.762,15.987
		c5.426,0,10.922-1.38,15.949-4.283c15.278-8.823,20.534-28.43,11.713-43.708L340.289,167.699
		c-1.575-16.186-15.254-28.879-31.844-28.879h-4.956v-32c0-5.892-4.776-10.668-10.668-10.668h-10.666V74.821h32.002
		c5.892,0,10.668-4.777,10.668-10.668v-8.267l18.255,10.54c-2.393,12.953,3.415,26.605,15.457,33.56l92.372,53.329
		c4.84,2.795,10.353,4.272,15.943,4.272c11.44,0,22.081-6.124,27.772-15.981c0.015-0.026,0.03-0.052,0.045-0.078
		C503.431,126.257,498.166,106.698,482.91,97.89z M218.155,117.487h10.665h42.667h10.666v63.999h-63.999v-21.331h15.51
		c5.891,0,10.668-4.777,10.668-10.668c0-5.892-4.777-10.668-10.668-10.668h-15.51V117.487z M191.869,160.155h4.951v21.331h-4.951
		c-5.88,0-10.663-4.784-10.663-10.665S185.99,160.155,191.869,160.155z M54.327,436.106c-2.942,5.092-9.478,6.84-14.57,3.9
		c-5.092-2.941-6.844-9.474-3.906-14.563l133.755-231.671c5.139,4.988,11.938,8.267,19.483,8.92L54.327,436.106z M260.822,480.006
		c0,5.878-4.784,10.659-10.666,10.659c-5.882,0-10.665-4.781-10.665-10.659V202.821h21.332V480.006z M460.556,440.008
		c-5.092,2.942-11.627,1.19-14.568-3.899L311.227,202.693c7.542-0.653,14.34-3.933,19.481-8.918l133.755,231.668
		C467.401,430.533,465.649,437.066,460.556,440.008z M308.446,160.155c5.88,0,10.662,4.784,10.662,10.665
		s-4.782,10.665-10.662,10.665h-4.956v-21.331H308.446z M260.82,96.152h-21.332V74.821h21.332V96.152z M303.489,53.486h-32.002
		h-42.667h-31.995V21.335h106.664V53.486z M476.149,130.934c-0.01,0.016-0.019,0.032-0.027,0.048
		c-1.899,3.251-5.446,5.269-9.269,5.269c-1.876,0-3.651-0.476-5.275-1.413L369.206,81.51c-5.094-2.943-6.846-9.479-3.906-14.571
		c0.025-0.043,0.049-0.085,0.073-0.128c1.911-3.205,5.432-5.189,9.223-5.189c1.875,0,3.65,0.476,5.276,1.415l92.37,53.329
		C477.336,119.307,479.089,125.843,476.149,130.934z"/>
</g>
</svg>