<?xml version="1.0" encoding="iso-8859-1"?>
<!-- Uploaded to: SVG Repo, www.svgrepo.com, Generator: SVG Repo Mixer Tools -->
<svg fill="#000000" height="800px" width="800px" version="1.1" id="Layer_1" xmlns="http://www.w3.org/2000/svg" xmlns:xlink="http://www.w3.org/1999/xlink" 
	 viewBox="0 0 512 512" xml:space="preserve">
<g>
	<g>
		<path d="M105.026,0v145.556c-4.169-0.747-8.562-1.146-13.128-1.146c-29.938,0-52.513,16.931-52.513,39.385
			c0,22.453,22.575,39.385,52.513,39.385s52.513-16.931,52.513-39.385V39.385h32.82V0H105.026z"/>
	</g>
</g>
<g>
	<g>
		<path d="M328.205,328.205c-25.336,0-45.949,20.613-45.949,45.949s20.613,45.949,45.949,45.949s45.949-20.613,45.949-45.949
			S353.541,328.205,328.205,328.205z"/>
	</g>
</g>
<g>
	<g>
		<path d="M328.205,170.667c-10.858,0-19.692,8.834-19.692,19.692c0,10.858,8.834,19.692,19.692,19.692s19.692-8.834,19.692-19.692
			C347.897,179.501,339.063,170.667,328.205,170.667z"/>
	</g>
</g>
<g>
	<g>
		<path d="M183.795,78.769V512h288.821V78.769H183.795z M328.205,131.282c32.575,0,59.077,26.502,59.077,59.077
			c0,32.575-26.502,59.077-59.077,59.077s-59.077-26.502-59.077-59.077C269.128,157.784,295.63,131.282,328.205,131.282z
			 M328.205,459.487c-47.053,0-85.333-38.281-85.333-85.333s38.281-85.333,85.333-85.333s85.333,38.281,85.333,85.333
			S375.258,459.487,328.205,459.487z"/>
	</g>
</g>
</svg>